<?xml version="1.0" encoding="utf-8"?>
<!-- Generator: Adobe Illustrator 25.0.1, SVG Export Plug-In . SVG Version: 6.00 Build 0)  -->
<svg version="1.1" id="Layer_1" xmlns="http://www.w3.org/2000/svg" xmlns:xlink="http://www.w3.org/1999/xlink" x="0px" y="0px"
	 viewBox="0 0 134.54 140.65" style="enable-background:new 0 0 134.54 140.65;" xml:space="preserve">
<style type="text/css">
	.st0{fill:#FDBA12;}
	.st1{fill:none;stroke:#FFFFFF;stroke-width:2;}
	.st2{fill:#EDECF1;}
	.st3{fill:none;stroke:#FFFFFF;}
	.st4{enable-background:new    ;}
	.st5{fill:#FDB913;}
	.st6{fill:#F7F7F7;}
	.st7{fill:#FFFFFF;}
</style>
<g id="Group_824" transform="translate(-2942.783 -4978)">
	<g id="Path_3239" transform="translate(2942.783 4989)">
		<path class="st5" d="M67.27,118.71c-8.17,0-16.1-1.59-23.56-4.72c-3.58-1.5-7.04-3.37-10.28-5.53c-3.2-2.15-6.22-4.61-8.96-7.33
			c-2.74-2.72-5.22-5.7-7.39-8.88c-2.18-3.21-4.06-6.64-5.57-10.19c-3.15-7.39-4.75-15.25-4.75-23.35s1.6-15.95,4.75-23.35
			c1.52-3.55,3.39-6.98,5.57-10.19c2.16-3.18,4.65-6.17,7.39-8.88c2.74-2.72,5.75-5.18,8.96-7.33c3.23-2.17,6.69-4.03,10.28-5.53
			c7.46-3.13,15.38-4.72,23.56-4.72s16.1,1.59,23.56,4.72c3.58,1.5,7.04,3.37,10.28,5.53c3.2,2.15,6.22,4.61,8.96,7.33
			c2.74,2.72,5.22,5.7,7.39,8.88c2.18,3.21,4.06,6.64,5.57,10.19c3.15,7.39,4.75,15.25,4.75,23.35s-1.6,15.95-4.75,23.35
			c-1.52,3.55-3.39,6.98-5.57,10.19c-2.16,3.18-4.65,6.17-7.39,8.88c-2.74,2.72-5.75,5.18-8.96,7.33
			c-3.23,2.17-6.69,4.03-10.28,5.53C83.37,117.12,75.44,118.71,67.27,118.71z"/>
		<path class="st6" d="M67.27,1.71c-31.71,0-57.5,25.57-57.5,57s25.79,57,57.5,57s57.5-25.57,57.5-57S98.97,1.71,67.27,1.71
			 M67.27-4.29c35.07,0,63.5,28.21,63.5,63s-28.43,63-63.5,63s-63.5-28.21-63.5-63S32.2-4.29,67.27-4.29z"/>
	</g>
	<g>
		<g class="st4">
			<path class="st7" d="M3009.81,5080.62c-1.58,0-2.91-0.54-4-1.63c-1.09-1.08-1.63-2.46-1.63-4.14v-23.24h-23.24
				c-1.58,0-2.91-0.54-4-1.63c-1.09-1.08-1.63-2.47-1.63-4.14c0-1.58,0.54-2.93,1.63-4.07c1.08-1.13,2.42-1.7,4-1.7h23.24v-23.24
				c0-1.58,0.54-2.91,1.63-4c1.09-1.08,2.42-1.63,4-1.63c1.68,0,3.06,0.54,4.14,1.63c1.08,1.09,1.63,2.42,1.63,4v23.24h23.24
				c1.58,0,2.93,0.57,4.07,1.7c1.13,1.14,1.7,2.49,1.7,4.07c0,1.68-0.57,3.06-1.7,4.14c-1.13,1.09-2.49,1.63-4.07,1.63h-23.24v23.24
				c0,1.68-0.54,3.06-1.63,4.14C3012.86,5080.08,3011.49,5080.62,3009.81,5080.62z"/>
		</g>
	</g>
</g>
</svg>
