<?xml version="1.0" encoding="utf-8"?>
<!-- Generator: Adobe Illustrator 25.0.1, SVG Export Plug-In . SVG Version: 6.00 Build 0)  -->
<svg version="1.1" id="Layer_1" xmlns="http://www.w3.org/2000/svg" xmlns:xlink="http://www.w3.org/1999/xlink" x="0px" y="0px"
	 viewBox="0 0 108.45 96.81" style="enable-background:new 0 0 108.45 96.81;" xml:space="preserve">
<style type="text/css">
	.st0{fill:#FDBA12;}
	.st1{fill:none;stroke:#FFFFFF;stroke-width:2;}
	.st2{fill:#EDECF1;}
	.st3{fill:none;stroke:#FFFFFF;}
	.st4{enable-background:new    ;}
</style>
<g>
	<g id="Ellipse_1">
		<circle class="st0" cx="54.22" cy="48.41" r="36"/>
		<circle class="st3" cx="54.22" cy="48.41" r="35.5"/>
	</g>
	<g>
		<g class="st4">
			<path class="st2" d="M43.4,65.41c-0.59,0-1.05-0.18-1.4-0.55c-0.35-0.37-0.53-0.81-0.55-1.32c-0.02-0.51,0.17-1.01,0.58-1.49
				L52.15,49.4l2.37,3.13l-9.62,12.21C44.56,65.19,44.06,65.41,43.4,65.41z M65.18,65.41c-0.44,0-0.8-0.07-1.07-0.22
				c-0.28-0.15-0.56-0.4-0.85-0.77l-9.52-12.1l-1.65-1.43l-9.57-12.16c-0.4-0.48-0.6-0.97-0.58-1.49c0.02-0.51,0.19-0.96,0.52-1.35
				c0.33-0.38,0.81-0.58,1.43-0.58c0.62,0,1.16,0.22,1.59,0.66l9.24,11.83l1.49,1.21l10.23,13.09c0.48,0.59,0.68,1.14,0.61,1.65
				c-0.07,0.51-0.3,0.92-0.69,1.21C65.98,65.26,65.59,65.41,65.18,65.41z M56.27,51.11l-2.7-2.75l9.52-12.04
				c0.26-0.37,0.54-0.62,0.85-0.77c0.31-0.15,0.63-0.22,0.96-0.22c0.62,0,1.1,0.19,1.43,0.58c0.33,0.39,0.49,0.84,0.47,1.38
				c-0.02,0.53-0.21,1.04-0.58,1.51L56.27,51.11z"/>
		</g>
	</g>
</g>
</svg>
